<svg version="1.1" id="Layer_1" xmlns="http://www.w3.org/2000/svg" xmlns:xlink="http://www.w3.org/1999/xlink" x="0px" y="0px"
	 width="129.805px" height="150px" viewBox="0 0 129.805 150" enable-background="new 0 0 129.805 150" xml:space="preserve">
<path fill="#A7B1C5" d="M80.551,90.792h14.193v54.401c3.711-1.611,7.215-3.604,10.479-5.916V78.625h14.195v46.323
	c6.541-9.417,10.387-20.848,10.387-33.182c0-31.562-25.113-57.242-56.445-58.191v59.983H13.381
	c0.535,17.694,8.963,33.401,21.879,43.726v-21.819h14.195v30.185c2.402,0.986,4.887,1.813,7.438,2.477v-42.124h14.194v43.987
	c0.16,0,0.322,0.012,0.482,0.012c3.057,0,6.053-0.238,8.982-0.691V90.792z"/>
<path fill="#7ED3F7" d="M43.191,36.938l-0.002,6.089c0,1.026-0.832,1.852-1.855,1.852h-5.738c-1.025,0-1.855,0.837-1.857,1.854
	l0.002,0.302v4.556c0.115,0.908,0.863,1.622,1.807,1.622h5.74c0.262,0,0.508,0.054,0.73,0.15c0.695,0.272,1.188,0.944,1.188,1.731
	v5.768c0,1.025,0.832,1.862,1.863,1.862h5.768c1.029,0,1.861,0.833,1.861,1.858v6.862c0,1.026-0.832,1.862-1.861,1.862h-6.861
	c-1.031,0-1.859-0.836-1.859-1.862v-5.768c0-1.026-0.838-1.86-1.861-1.86h-5.768c-0.785,0-1.453-0.489-1.727-1.176
	c-0.098-0.228-0.154-0.477-0.154-0.74v-5.742c0-0.85-0.58-1.549-1.363-1.762h-5.168c-1.025,0-1.861,0.834-1.861,1.86v5.768
	c0,1.028-0.83,1.865-1.861,1.865h-6.01c-3.473,7.161-5.529,15.138-5.787,23.572h56.399V31.064
	C58.445,31.322,50.402,33.41,43.191,36.938z M25.324,43.827h6.301c0.566,0,1.023-0.457,1.023-1.021v-6.302
	c0-0.566-0.457-1.023-1.023-1.023h-6.301c-0.564,0-1.023,0.457-1.023,1.023v6.302C24.301,43.37,24.76,43.827,25.324,43.827z
	 M18.211,58.946c1.025,0,1.861-0.833,1.861-1.86v-6.86c0-1.032-0.836-1.86-1.861-1.86h-5.768c-1.027,0-1.861-0.839-1.861-1.863
	v-5.768c0-1.028-0.832-1.858-1.859-1.858H1.861C0.834,38.877,0,39.708,0,40.735v6.86c0,1.028,0.834,1.86,1.861,1.86h5.766
	c1.027,0,1.863,0.833,1.863,1.863v5.768c0,1.028,0.834,1.86,1.857,1.86H18.211z"/>
<path fill="#C7EAFB" d="M31.635,14.945c-0.225-0.099-0.477-0.163-0.738-0.163h-5.705c-0.943-0.066-1.695-0.835-1.695-1.79V7.364
	c0-1.006-0.814-1.82-1.818-1.82h-6.691c-1.006,0-1.814,0.813-1.814,1.82v6.69c0,1.006,0.809,1.82,1.814,1.82h5.629
	c0.924,0,1.656,0.699,1.771,1.594v4.757c0,1-0.818,1.819-1.82,1.819h-5.623c-1.006,0-1.82,0.809-1.82,1.82v6.69
	c0,1.004,0.814,1.815,1.82,1.815h6.691c1.004,0,1.814-0.811,1.814-1.815v-5.626c0-0.959,0.754-1.727,1.695-1.798h5.795
	c1.006,0,1.818-0.809,1.818-1.813v-6.692C32.758,15.864,32.295,15.218,31.635,14.945z M46.479,9.486h-5.768
	c-1.025,0-1.861-0.837-1.861-1.86V1.858C38.85,0.831,38.018,0,36.992,0h-6.863c-1.025,0-1.859,0.831-1.859,1.858v6.858
	c0,1.03,0.834,1.862,1.859,1.862h5.768c1.027,0,1.863,0.833,1.863,1.86v5.768c0,1.03,0.832,1.86,1.857,1.86h6.861
	c1.029,0,1.863-0.831,1.863-1.86v-6.858C48.342,10.317,47.508,9.486,46.479,9.486z"/>
</svg>