<svg version="1.1" id="Layer_1" xmlns="http://www.w3.org/2000/svg" xmlns:xlink="http://www.w3.org/1999/xlink" x="0px" y="0px"
	 width="153px" height="151.162px" viewBox="0 0 153 151.162" enable-background="new 0 0 153 151.162" xml:space="preserve">
<path fill="#006838" d="M63.447,0.989C39.935,10.437,18.72,30.987,17.597,58.333c-1.405,25.585,17.656,48.845,43.702,47.457
	c15.165-1.483,23.353-12.737,31.544-23.991c18.693,15.167-1.964,39.254-17.036,47.065c-27.911,12.55-62.514-0.11-75.807-27
	c7.63,2.423,11.346,14.518,21.392,9.309C-3.713,72.562,10.165,16.938,55.104,2.47C64.018-0.354,67.383-0.625,63.447,0.989z"/>
<path fill="#8DC63F" d="M89.55,150.173c23.516-9.448,44.73-29.998,45.854-57.345c1.401-25.583-17.663-48.844-43.707-47.458
	c-15.163,1.484-23.354,12.739-31.542,23.993c-18.693-15.168,1.967-39.255,17.039-47.067C105.102,9.747,139.704,22.408,153,49.297
	c-7.63-2.423-11.347-14.517-21.396-9.308c25.105,38.609,11.228,94.233-33.713,108.703C88.979,151.516,85.614,151.786,89.55,150.173z
	"/>
<g>
	<path fill="#BCBEC0" d="M85.695,75.577c0,5.067-4.109,9.181-9.182,9.181s-9.184-4.113-9.184-9.181c0-5.072,4.111-9.184,9.184-9.184
		S85.695,70.505,85.695,75.577z"/>
	<path fill="#BCBEC0" d="M92.675,56.558c-3.808,0-6.891,3.082-6.891,6.886c0,3.803,3.083,6.889,6.891,6.889
		c3.802,0,6.885-3.086,6.885-6.889C99.56,59.64,96.477,56.558,92.675,56.558z M110.114,63.443c-2.659,0-4.816,2.157-4.816,4.816
		c0,2.657,2.157,4.814,4.816,4.814s4.816-2.157,4.816-4.814C114.931,65.601,112.773,63.443,110.114,63.443z M120.476,75.361
		c-1.8,0-3.261,1.46-3.261,3.262c0,1.799,1.461,3.262,3.261,3.262c1.803,0,3.26-1.463,3.26-3.262
		C123.735,76.821,122.278,75.361,120.476,75.361z M76.483,66.403c-5.072,0-9.187,4.113-9.187,9.18c0,5.073,4.114,9.185,9.187,9.185
		s9.183-4.111,9.183-9.185C85.666,70.517,81.556,66.403,76.483,66.403z M60.325,80.828c-3.806,0-6.888,3.086-6.888,6.89
		c0,3.803,3.082,6.886,6.888,6.886c3.805,0,6.888-3.083,6.888-6.886C67.213,83.914,64.13,80.828,60.325,80.828z M42.883,78.089
		c-2.66,0-4.816,2.155-4.816,4.813c0,2.659,2.156,4.816,4.816,4.816c2.659,0,4.816-2.157,4.816-4.816
		C47.699,80.244,45.542,78.089,42.883,78.089z M32.522,69.277c-1.801,0-3.261,1.463-3.261,3.262c0,1.801,1.46,3.262,3.261,3.262
		c1.802,0,3.259-1.461,3.259-3.262C35.781,70.74,34.324,69.277,32.522,69.277z"/>
</g>
</svg>