<svg version="1.1" id="Layer_1" xmlns="http://www.w3.org/2000/svg" xmlns:xlink="http://www.w3.org/1999/xlink" x="0px" y="0px"
	 width="186.259px" height="149.021px" viewBox="0 0 186.259 149.021" enable-background="new 0 0 186.259 149.021"
	 xml:space="preserve">
<path fill="#009344" d="M158.368,31.829c2.452,0,4.787-0.405,6.938-1.118l9.565,2.61l-3.317-6c3.539-2.892,5.745-6.93,5.745-11.405
	C177.299,7.126,168.822,0,158.368,0c-10.456,0-18.932,7.126-18.932,15.916C139.437,24.704,147.912,31.829,158.368,31.829z
	 M186.259,127.676c0-10.202-9.748-18.476-21.776-18.476c-12.027,0-21.777,8.274-21.777,18.476c0,10.202,9.75,18.473,21.777,18.473
	c0.951,0,1.88-0.068,2.797-0.169l11.696,3.04l-2.448-5.958C182.391,139.752,186.259,134.1,186.259,127.676z M133.024,43.674
	c0-5.869-5.66-10.624-12.635-10.624c-6.981,0-12.637,4.755-12.637,10.624c0,5.865,5.655,10.623,12.637,10.623
	c1.636,0,3.194-0.271,4.629-0.747l6.386,1.741l-2.215-4.005C131.55,49.356,133.024,46.66,133.024,43.674z M62.606,97.727
	c0-6.042-5.826-10.938-13.006-10.938c-7.187,0-13.011,4.896-13.011,10.938c0,6.037,5.824,10.933,13.011,10.933
	c1.683,0,3.285-0.277,4.762-0.767l6.576,1.792l-2.28-4.123C61.091,103.575,62.606,100.801,62.606,97.727z"/>
<path fill="#38b449" d="M40.989,21.624c-8.678,0-15.713,5.916-15.713,13.208c0,3.714,1.833,7.065,4.77,9.465l-2.752,4.979
	l7.939-2.166c1.783,0.592,3.723,0.927,5.756,0.927c8.676,0,15.711-5.913,15.711-13.206S49.665,21.624,40.989,21.624z
	 M120.896,84.365c-7.658,0-13.87,5.225-13.87,11.666c0,3.276,1.616,6.234,4.21,8.353l-2.429,4.398l7.007-1.912
	c1.577,0.522,3.285,0.819,5.082,0.819c7.662,0,13.874-5.224,13.874-11.657C134.771,89.59,128.559,84.365,120.896,84.365z
	 M16.618,111.04C7.44,111.04,0,117.295,0,125.008c0,3.927,1.937,7.472,5.042,10.01l-2.908,5.269l8.396-2.291
	c1.887,0.625,3.937,0.98,6.088,0.98c9.176,0,16.616-6.256,16.616-13.968C33.234,117.295,25.794,111.04,16.618,111.04z
	 M83.935,53.897c-10.586,0-19.168,7.282-19.168,16.263c0,8.979,8.582,16.261,19.168,16.261c0.838,0,1.656-0.061,2.465-0.15
	l10.294,2.676l-2.155-5.245c5.16-2.915,8.564-7.89,8.564-13.542C103.103,61.179,94.52,53.897,83.935,53.897z"/>
<path fill="#8cc63e" d="M38.491,103.393L25.977,113.47c1.692,0.971,3.153,2.2,4.317,3.615l12.491-10.059
	C41.033,106.117,39.562,104.872,38.491,103.393z M72.393,57.198L54.175,41.995c-1.111,1.442-2.544,2.691-4.219,3.672l18.24,15.222
	C69.356,59.476,70.776,58.235,72.393,57.198z M131.629,38.836l14.614-10.704c-1.576-1.107-2.922-2.434-4.001-3.913l-14.653,10.73
	C129.287,35.943,130.677,37.278,131.629,38.836z M109.128,48.474l-12.744,9.335c1.553,1.127,2.88,2.464,3.942,3.955l12.822-9.392
	C111.456,51.374,110.071,50.035,109.128,48.474z M133.55,100.792c-0.854,1.601-2.121,3.01-3.695,4.13l16.608,12.38
	c1.149-1.435,2.531-2.724,4.1-3.831L133.55,100.792z M96.788,82.188l12.121,7.997c1.052-1.523,2.493-2.835,4.223-3.821
	l-12.499-8.242C99.618,79.65,98.312,81.016,96.788,82.188z M68.218,79.453l-11.396,9.178c1.705,0.959,3.123,2.251,4.131,3.763
	l11.482-9.248C70.812,82.11,69.384,80.868,68.218,79.453z"/>
</svg>